<svg viewBox="0 0 410 250" xmlns="http://www.w3.org/2000/svg"><defs><path stroke-width=".299" d="m-1-1h2v2h-2z" color="#8b1a0e"/><circle r=".5" stroke-width=".5"/><circle stroke-width=".299" r="1"/></defs><g fill="none" stroke-linejoin="round" stroke-linecap="round"><path stroke="#808080" stroke-dasharray="2 4" d="m54.3 205.3h336.7.01" color="#808080"/><g color="#f00"><path stroke="#808080" d="m54.3 205.3h6.7.01"/><text transform="translate(48 208.7)" fill="#808080" font-family="Verdana, Helvetica, Arial, sans-serif" text-anchor="end" font-size="11.25"> 0</text></g><path stroke="#808080" stroke-dasharray="2 4" d="m54.3 166.8h336.7.01" color="#808080"/><g color="#f00"><path stroke="#808080" d="m54.3 166.8h6.7.01"/><text transform="translate(48 170.2)" fill="#808080" font-family="Verdana, Helvetica, Arial, sans-serif" text-anchor="end" font-size="11.25"> 20</text></g><path stroke="#808080" stroke-dasharray="2 4" d="m54.3 128.2h336.7.01" color="#808080"/><g color="#f00"><path stroke="#808080" d="m54.3 128.2h6.7.01"/><text transform="translate(48 131.6)" fill="#808080" font-family="Verdana, Helvetica, Arial, sans-serif" text-anchor="end" font-size="11.25"> 40</text></g><path stroke="#808080" stroke-dasharray="2 4" d="m54.3 89.7h336.7.01" color="#808080"/><g color="#f00"><path stroke="#808080" d="m54.3 89.7h6.7.01"/><text transform="translate(48 93.1)" fill="#808080" font-family="Verdana, Helvetica, Arial, sans-serif" text-anchor="end" font-size="11.25"> 60</text></g><path stroke="#808080" stroke-dasharray="2 4" d="m54.3 51.2h254.4m76 0h6.3.01" color="#808080"/><g color="#f00"><path stroke="#808080" d="m54.3 51.2h6.7.01"/><text transform="translate(48 54.6)" fill="#808080" font-family="Verdana, Helvetica, Arial, sans-serif" text-anchor="end" font-size="11.25"> 80</text></g><path stroke="#808080" stroke-dasharray="2 4" d="m54.3 12.7h336.7.01" color="#808080"/><g color="#f00"><path stroke="#808080" d="m54.3 12.7h6.7.01"/><text transform="translate(48 16.1)" fill="#808080" font-family="Verdana, Helvetica, Arial, sans-serif" text-anchor="end" font-size="11.25"> 100</text></g><path stroke="#808080" stroke-dasharray="2 4" d="m54.3 207.2v-194.5h.01" color="#808080"/><g color="#f00"><path stroke="#808080" d="m54.3 207.2v-6.7h.01"/><text transform="translate(54.3 224)" fill="#808080" font-family="Verdana, Helvetica, Arial, sans-serif" text-anchor="middle" font-size="11.25"> 0</text></g><path stroke="#808080" stroke-dasharray="2 4" d="m110.4 207.2v-194.5h.01" color="#808080"/><g color="#f00"><path stroke="#808080" d="m110.4 207.2v-6.7h.01"/><text transform="translate(110.4 224)" fill="#808080" font-family="Verdana, Helvetica, Arial, sans-serif" text-anchor="middle" font-size="11.25"> 0.5</text></g><path stroke="#808080" stroke-dasharray="2 4" d="m166.5 207.2v-194.5h.01" color="#808080"/><g color="#f00"><path stroke="#808080" d="m166.5 207.2v-6.7h.01"/><text transform="translate(166.5 224)" fill="#808080" font-family="Verdana, Helvetica, Arial, sans-serif" text-anchor="middle" font-size="11.25"> 1</text></g><path stroke="#808080" stroke-dasharray="2 4" d="m222.7 207.2v-194.5h.01" color="#808080"/><g color="#f00"><path stroke="#808080" d="m222.7 207.2v-6.7h.01"/><text transform="translate(222.7 224)" fill="#808080" font-family="Verdana, Helvetica, Arial, sans-serif" text-anchor="middle" font-size="11.25"> 1.5</text></g><path stroke="#808080" stroke-dasharray="2 4" d="m278.8 207.2v-194.5h.01" color="#808080"/><g color="#f00"><path stroke="#808080" d="m278.8 207.2v-6.7h.01"/><text transform="translate(278.8 224)" fill="#808080" font-family="Verdana, Helvetica, Arial, sans-serif" text-anchor="middle" font-size="11.25"> 2</text></g><path stroke="#808080" stroke-dasharray="2 4" d="m334.9 207.2v-134.2m0-53.6v-6.7h.01" color="#808080"/><g color="#f00"><path stroke="#808080" d="m334.9 207.2v-6.7h.01"/><text transform="translate(334.9 224)" fill="#808080" font-family="Verdana, Helvetica, Arial, sans-serif" text-anchor="middle" font-size="11.25"> 2.5</text></g><path stroke="#808080" stroke-dasharray="2 4" d="m391 207.2v-194.5h.01" color="#808080"/><g color="#f00"><path stroke="#808080" d="m391 207.2v-6.7h.01"/><text transform="translate(391 224)" fill="#808080" font-family="Verdana, Helvetica, Arial, sans-serif" text-anchor="middle" font-size="11.25"> 3</text><path stroke="#808080" d="m54.3 12.7v194.5h336.7m-336.7-194.5h.01"/><text transform="matrix(0-1 1 0 13.2 110)" fill="#000" font-family="Verdana, Helvetica, Arial, sans-serif" text-anchor="middle" font-size="11.25">Xn</text></g><text transform="translate(222.6 244.1)" fill="#000" font-family="Verdana, Helvetica, Arial, sans-serif" text-anchor="middle" font-size="11.25" color="#000">time</text><g color="#f00" stroke-width="2"><text transform="translate(340.2 29.5)" fill="#000" font-family="Verdana, Helvetica, Arial, sans-serif" text-anchor="end" font-size="11.25">TEM</text><path stroke="#8b1a0e" d="m346.5 26.1h31.9m-324.1-13.4l3.4 2.2 3.3 1.5 3.4 2.1 3.4 1.8 3.3 2.3 3.4 1.7 3.4 1.8 3.3 1.9 3.4 1.8 3.4 1.7 3.3 1.8 3.4 1.9 3.4 1.9 3.3 1.9 3.4 2 3.4 1.9 3.3 1.9 3.4 2 3.4 1.9 3.3 1.9 3.4 2.1 3.4 2 3.3 1.9 3.4 1.9 3.4 2.1 3.3 1.9 3.4 2 3.4 1.8 3.3 2.1 3.4 1.9 3.4 2 3.3 1.7 3.4 1.9 3.4 2.1 3.3 1.9 3.4 1.9 3.4 2 3.3 2 3.4 2 3.4 2 3.3 1.9 3.4 2 3.4 2 3.3 1.8 3.4 1.9 3.4 1.9 3.3 1.9 3.4 2 3.4 1.8 3.4 1.9 3.3 1.9 3.4 1.9 3.4 2 3.3 1.9 3.4 1.9 3.4 1.8 3.3 1.8 3.4 2 3.4 1.8 3.3 2 3.4 2 3.4 1.9 3.3 1.8 3.4 2 3.4 1.9 3.3 1.9 3.4 1.9 3.4 2.1 3.3 1.9 3.4 2 3.4 1.9 3.3 1.9 3.4 1.9 3.4 2 3.3 1.9 3.4 2 3.4 2 3.3 1.9 3.4 1.9 3.4 1.9 3.3 1.9 3.4 1.8 3.4 2 3.3 1.9 3.4 1.9 3.4 1.9 3.3 1.8 3.4 1.9 3.4 1.9 3.3 1.8 3.4 2 3.4 1.8 3.3 1.8 3.4 1.8 3.4 1.6 3.3 1.6 3.4 1.5 3.4 1.3 3.3 1 3.4.8h.01"/></g><g color="#f00" stroke-width="2"><text transform="translate(340.2 42.9)" fill="#000" font-family="Verdana, Helvetica, Arial, sans-serif" text-anchor="end" font-size="11.25">EM</text><path stroke="#5e9c36" d="m346.5 39.5h31.9m-324.1-26.8v194.5h.01"/><text transform="translate(340.2 56.3)" fill="#000" font-family="Verdana, Helvetica, Arial, sans-serif" text-anchor="end" font-size="11.25">SSLS</text><path stroke="#39f" d="m346.5 52.9h31.9m-324.1-40.2l3.4 192.9 3.3-.5 3.4.2 3.4-.1 3.3.4 3.4-.3 3.4-.1h3.3l3.4-.2 3.4-.1 3.3-.2h3.4l3.4-.1h3.3l3.4.1h3.4 3.3 3.4 3.4 3.3l3.4.1 3.4.1h3.3 3.4l3.4.2h3.3 3.4l3.4-.1 3.3.1h3.4l3.4.1 3.3-.2h3.4l3.4.2 3.3-.1h3.4 3.4l3.3.1 3.4.1 3.4.1h3.3 3.4l3.4.1 3.3-.2h3.4l3.4.1 3.3-.1 3.4.1 3.4-.1 3.4-.1h3.3 3.4 3.4 3.3 3.4l3.4-.1 3.3-.1h3.4l3.4-.1 3.3.1 3.4.1 3.4-.1 3.3-.1 3.4.1h3.4l3.3-.1h3.4l3.4.2h3.3 3.4 3.4 3.3 3.4 3.4 3.3l3.4.1h3.4l3.3.1h3.4l3.4-.1h3.3l3.4-.1 3.4.1 3.3-.1 3.4.1 3.4-.1 3.3-.1 3.4.1 3.4-.1h3.3l3.4.1h3.4l3.3-.1h3.4l3.4-.1h3.3 3.4l3.4.1h3.3l3.4-.1h.01"/><text transform="translate(340.2 69.7)" fill="#000" font-family="Verdana, Helvetica, Arial, sans-serif" text-anchor="end" font-size="11.25">exact</text><path stroke="#000" d="m346.5 66.3h31.9m-324.1-53.6v.6.6.5.6.5.6.5.6.5.6.5.5.5.5.6.5.5.5.5.5.4.5.5.5.4.5.5.4.5.5.4.4.5.4.5.4.4.5.4.4.4.4.5.4.4.4.4.4.4.4.3.4.4.4.4.4.3.4.4.3.4.4.3.4.3.4.3.4.3.4.3.3.4.3.3.4.3.3.4.3.3.3.3.3.4.3.3.3.3.3.3.3.3.3.3.3.3.3.2.3.3.3.3.3.2.3.3.3.2.3.3.3.2.3.2.3.3.2.3.2.3.3.2.3.2.3.2.3.2.2.3.2.3.2.2.3.2.3.2.2.2.3.2.2.3.2.2.2.3.2.2.2.2.3.2.2.2.2.2.2.2.3.2.2.2.2.2.2.2.2.2.2.2.2.2.2.2.2.2.2.1.2.2.2.2.2.2.2.2.1.2.2.2.2.2.1.2.2.2.1.2.2.2.2.1.2.2.1.2.2.2.1.2.2.1.2.2.1.2.1.2.2.1.2.2.1.2.1.2.2.1.2.1.2.1.2.1.2.1.2.1.2.1.2.1.2.1.2.1.2.1.2.1.2.1.1.2.1.2.1.2.1.1.2.1.2.1.1.2.1.1.2.1.1.2.1.1.2.1.1.2.1.1.2.1.1.1.2.1.1.2.1.1.1.2.1.1.1.2.1.1.1.2.1.1.1.1.2.1.1.1.1.2.1.1.1.1.1.2.1.1.1.1.1.1.2.1.1.1.1.1.1.1.2.1.1.1.1.1.1.1.1.1.1.2.1.1.1.1.1.1.1.1.1.1.1.1.1.1.1.1.1.1.1.1.1.1.1.1.1.1.1.1.1.1.1.1.1.1.1.1.1.1.1.1.1.1.1.1.1.1.1.1.1.1.1.1.1.1.1.1.1.1.1.1.1.1.1.1.1.1.1.1.1.1.1.1.1.1.1.1.1.1.1.1.1.1.1.1.1.1.1.1.1.1.1.1.1.1.1.1.1.1.1.1.1.1.1.1.1.1.1.1.1.1.1.1.1.1.1.1.1.1.1.1.1.1.1.1.1.1.1.1.1.1.1.1.1.1.1.1.1.1.1.1.1.1.1.1.1.1.1.1.1.1.1.1.1.1.1.1.1.1.1.1.1.1.1.1.1.1.1.1.1.1.1.1.1.1.1.1.1.1.1.1.1.1.1.1.1.1.1.1.1.1.1.1.1.1.1.1.1.1.1.1.1.1.1.1.1.1.1.1.1.1.1.1.1.1.1.1.1.1.1.1.1.1.1.1.1.1.1.1.1.1.1.1.1.1.1.1.1.1.1.1.1.1.1.1.1.1.1.1.1.1.1.1.1.1.1.1.1.1.1.1.1.1.1.1.1.1.1.1.1.1.1.1.1.1.1.1.1.1.1.1.1.1.1.1.1.1.1.1.1.1.1.1.1.1.1.1.1.1.1.1.1.1.1.1.1.1.1.1.1.1.1.1.1.1.1.1.1.1.1.1.1.1.1.1.1.1.1.1.1.1.1.1.1.1.1.1.1.1.1.1.1.1.1.1.1.1.1.1.1.1.1.1.1.1.1.1.1.1.1.1.1.1.1.1.1.1.1.1.1.1.1.1.1.1.1.1.1.1.1.1.1.1.1.1.1.1.1.1.1.1.1.1.1.1.1.1.1.1.1.1.1.1.1.1.1.1.1.1.1.1.1.1.1.1.1.1.1.1.1.1.1.1.1.1.1.1.1.1.1.1.1.1.1.1.1.1.1.1.1.1.1.1.1.1.1.1.1.1.1.1.1.1.1.1.1.1.1.1.1.1.1.1.1.1.1.1.1.1.1.1.1.1.1.1.1.1.1.1.1.1.1.1.1.1.1.1l.1.1v.1.1.1.1.1.1.1.1.1.1.1.1.1.1.1.1.1.1.1.1.1.1.1.1.1.1.1.1.1.1.1.1.1.1.1.1.1.1.1.1.1.1.1.1.1.1.1.1.1.1.1.1.1.1.1.1.1.1.1.1.1.1.1.1.1.1.1.1.1.1.1.1.1.1.1.1.1.1.1.1.1.1.1.1.1.1.1.1.1.1.1.1.1.1.1.1.1.1.1.1.1.1.1.1.1.1.1.1.1.1.1.1.1.1.1.1.1.1.1.1.1.1.1.1.1.1.1.1.1.1.1.1.1.1.1.1.1.1.1.1.1.1.1.1.1.1.1.1.1.1.1.1.1.1.1.1.1.1.1.1.1.1.1.1.1.1.1.1.1.1.1.1.1.1.1.1.1.1.1.1.1.1.1.1.1.1.1.1.1.1.1.1.1.1.1.1.1.1.1.1.1.1.1.1.1.1.1.1.1.1.1.1.1.1.1.1.1.1.1.1.1.1.1.1.1.1.1.1.1.1.1.1.1.1.1.1.1.1.1.1.1.1.1.1.1h.1v.1.1.1.1.1.1.1.1.1.1.1.1.1.1.1.1.1.1.1.1.1.1.1.1.1.1.1.1.1.1.1.1.1.1.1.1.1.1.1.1.1.1.1.1.1.1.1.1.1.1.1.1.1.1.1.1.1.1.1.1.1.1.1.1.1.1.1.1.1.1.1.1.1.1.1.1.1.1.1.1h.1v.1.1.1.1.1.1.1.1.1.1.1.1.1.1.1.1.1.1.1.1.1.1.1.1.1.1.1.1.1.1.1.1.1.1.1.1.1.1.1.1.1.1.1.1h.1v.1.1.1.1.1.1.1.1.1.1.1.1.1.1.1.1.1.1.1.1.1.1.1.1.1.1.1.1h.1v.1.1.1.1.1.1.1.1.1.1.1.1.1.1.1.1.1.1.1.1h.1v.1.1.1.1.1.1.1.1.1.1.1.1.1.1.1.1h.1v.1.1.1.1.1.1.1.1.1.1.1.1h.1v.1.1.1.1.1.1.1.1.1.1h.1v.1.1.1.1.1.1.1.1h.1v.1.1.1.1.1.1.1h.1v.1.1.1.1.1.1.1h.1v.1.1.1.1.1h.1v.1.1.1.1.1h.1v.1.1.1.1h.1v.1.1.1.1h.1v.1.1.1.1h.1v.1.1.1h.1v.1.1.1h.1v.1.1.1h.1v.1.1h.1v.1.1-.1.1h.1v.1.1.1h.1v.1-.1.1.1h.1v.1.1h.1v.1.1-.1.1h.1v.1h.1v.1-.1.1.1h.1v.1h.1v.1-.1.1.1h.1v.1h.1v.1.1h.1v.1h.1v.1h.1v.1h.1v.1h.1v.1-.1.1-.1.1h.1v.1-.1.1h.1v.1-.1.1h.1v.1-.1.1-.1.1h.1v.1h.1v.1h.1v.1h.1v.1-.1.1h.1.1v.1h.1v.1h.1.1v.1h.1v.1-.1.1-.1.1-.1.1-.1.1h.1.1v.1h.1v.1-.1.1-.1.1-.1.1-.1.1h.1.1v.1-.1.1-.1.1h.1.1v.1-.1.1-.1.1-.1.1-.1.1-.1.1-.1.1h.1.1v.1-.1.1h.1.1v.1-.1.1-.1.1-.1.1h.1.1v.1h.1.1v.1-.1.1h.1.1v.1-.1.1h.1.1.1v.1-.1.1h.1.1v.1-.1.1-.1.1-.1.1-.1.1h.1.1.1v.1-.1.1-.1.1h.1.1.1v.1h.1.1.1v.1h.1.1.1v.1-.1.1-.1.1-.1.1-.1.1h.1.1.1v.1h.1.1.1v.1-.1.1-.1.1-.1.1-.1.1h.1.1.1.1v.1-.1.1-.1.1-.1.1h.1.1.1.1v.1-.1.1-.1.1-.1.1-.1.1h.1.1.1.1.1v.1-.1.1h.1.1.1.1v.1-.1.1h.1.1.1.1.1v.1-.1.1-.1.1h.1.1.1.1.1.1v.1-.1.1-.1.1-.1.1-.1.1-.1.1-.1.1-.1.1-.1.1h.1.1.1.1.1v.1h.1.1.1.1.1.1.1v.1-.1.1-.1.1-.1.1-.1.1-.1.1-.1.1-.1.1h.1.1.1.1.1.1v.1-.1.1-.1.1-.1.1-.1.1-.1.1-.1.1-.1.1-.1.1h.1.1.1.1.1.1v.1-.1.1h.1.1.1.1.1.1.1v.1-.1.1-.1.1h.1.1.1.1.1.1.1.1.1v.1-.1.1-.1.1-.1.1-.1.1-.1.1-.1.1-.1.1-.1.1-.1.1-.1.1-.1.1-.1.1-.1.1h.1.1.1.1.1.1.1.1v.1-.1.1-.1.1-.1.1-.1.1-.1.1-.1.1-.1.1-.1.1-.1.1-.1.1-.1.1-.1.1-.1.1-.1.1h.1.1.1.1.1.1.1.1.1v.1-.1.1h.1.1.1.1.1.1.1.1.1.1.1.1.1.1v.1-.1.1-.1.1h.1.1.1.1.1.1.1.1.1.1.1.1.1v.1-.1.1-.1.1-.1.1-.1.1-.1.1-.1.1-.1.1-.1.1-.1.1-.1.1-.1.1-.1.1-.1.1h.1.1.1.1.1.1.1.1.1.1.1.1.1.1v.1h.1.1.1.1.1.1.1.1.1.1.1.1.1.1.1v.1-.1.1-.1.1-.1.1-.1.1-.1.1-.1.1-.1.1-.1.1-.1.1h.1.1.1.1.1.1.1.1.1.1.1.1.1.1.1.1v.1-.1.1-.1.1-.1.1-.1.1-.1.1-.1.1-.1.1-.1.1-.1.1-.1.1-.1.1-.1.1-.1.1-.1.1-.1.1-.1.1-.1.1-.1.1-.1.1-.1.1-.1.1-.1.1-.1.1h.1v-.1.1-.1.1-.1.1-.1.1-.1.1-.1.1-.1.1-.1.1-.1.1h.1.1.1.1.1.1.1.1.1.1.1.1.1.1.1.1v.1-.1.1h.1.1.1.1.1.1.1.1.1.1.1.1.1.1.1.1.1.1.1.1v.1-.1.1-.1.1-.1.1-.1.1-.1.1-.1.1-.1.1-.1.1-.1.1-.1h.1v.1-.1.1-.1.1-.1.1-.1.1-.1.1-.1.1-.1.1-.1.1-.1.1-.1.1-.1.1-.1.1-.1.1-.1.1-.1.1-.1.1-.1.1-.1.1-.1.1h.1v-.1.1-.1.1-.1.1-.1.1-.1.1-.1.1-.1.1-.1.1-.1.1-.1.1-.1.1-.1.1-.1.1-.1.1-.1.1-.1.1-.1.1-.1.1-.1.1-.1.1-.1.1-.1.1-.1.1-.1.1-.1.1-.1.1-.1.1-.1.1-.1.1-.1.1-.1.1h.1.1.1.1.1.1.1.1.1.1.1.1.1.1.1.1.1.1.1.1.1.1.1.1.1.1.1.1.1.1.1v.1-.1.1-.1.1-.1.1-.1.1-.1.1-.1.1-.1.1-.1.1-.1.1-.1.1-.1.1h.1.1.1.1.1.1.1.1.1.1.1.1.1.1.1.1.1.1.1.1.1.1.1.1.1v.1-.1.1-.1.1-.1.1-.1.1-.1.1-.1h.1v.1-.1.1-.1.1h.1.1.1.1.1.1.1.1.1.1.1.1.1.1.1.1.1.1.1.1.1.1.1.1.1.1.1.1.1.1.1.1.1.1.1v.1-.1.1-.1.1-.1.1-.1.1-.1.1-.1.1-.1.1-.1.1-.1.1-.1.1-.1.1-.1.1-.1.1-.1.1-.1.1-.1.1-.1.1-.1.1-.1.1-.1h.1v.1-.1.1-.1.1-.1.1-.1.1-.1.1-.1.1-.1.1-.1.1-.1.1-.1.1-.1.1-.1.1h.1.1.1.1.1.1.1.1.1.1.1.1.1.1.1.1.1.1.1.1.1.1.1.1.1.1v.1-.1.1-.1.1-.1.1-.1.1-.1h.1v.1-.1.1-.1.1-.1.1-.1.1-.1.1-.1.1-.1.1-.1.1-.1.1-.1.1-.1.1-.1.1-.1.1-.1.1-.1.1-.1.1-.1.1-.1.1-.1.1-.1.1h.1v-.1.1-.1.1-.1.1-.1.1-.1.1-.1.1-.1.1-.1.1-.1.1-.1.1-.1.1-.1.1-.1.1-.1.1-.1.1-.1.1-.1.1-.1.1-.1.1-.1.1-.1.1-.1.1-.1.1-.1.1-.1.1-.1.1-.1.1h.1.1.1.1.1.1.1.1.1.1.1.1.1.1.1.1.1.1.1.1.1.1.1.1.1.1.1.1.1.1.1.1.1.1.1.1.1.1v.1-.1.1-.1.1-.1.1-.1.1-.1.1-.1.1-.1.1h.1.1.1.1.1.1.1.1.1.1.1.1.1.1.1.1.1.1.1.1.1.1.1.1.1.1.1.1.1.1.1.1.1.1.1.1.1.1.1.1v.1-.1.1-.1.1-.1.1-.1.1-.1.1-.1.1-.1.1-.1.1-.1.1-.1.1-.1.1-.1.1-.1.1-.1.1-.1.1-.1.1-.1.1-.1.1-.1.1-.1.1-.1.1-.1.1-.1.1-.1l.1.1v-.1.1-.1.1-.1.1-.1.1-.1.1-.1.1-.1.1-.1.1-.1.1-.1.1-.1.1-.1.1-.1.1-.1.1-.1.1-.1.1-.1.1-.1.1-.1.1-.1.1-.1.1-.1.1-.1.1-.1.1-.1.1-.1.1-.1.1-.1.1-.1.1-.1.1-.1h.1v.1-.1.1-.1.1-.1.1-.1.1h.1.1.1.1.1.1.1.1.1.1.1.1.1.1.1.1.1.1.1.1.1.1.1.1.1.1.1.1.1.1.1.1.1.1.1.1.1.1.1v.1-.1.1-.1.1-.1.1-.1h.1v.1-.1.1-.1.1-.1.1-.1.1-.1.1-.1.1-.1h.1v.1-.1.1-.1.1-.1.1-.1.1h.1.1.1.1.1.1.1.1.1.1.1.1.1.1.1.1.1.1.1.1.1.1.1.1.1.1.1.1.1.1.1.1.1.1.1.1.1.1.1.1.1.1.1.1.1.1.1.1.1.1.1.1.1.1.1.1v.1-.1.1-.1.1-.1.1-.1.1-.1.1-.1.1-.1.1-.1.1-.1.1-.1h.1v.1h.1.1v-.1.1-.1.1-.1.1-.1.1-.1.1-.1.1-.1.1-.1.1-.1.1-.1.1-.1.1-.1.1-.1.1-.1.1-.1.1-.1.1-.1.1-.1.1-.1.1-.1.1-.1.1-.1.1-.1.1-.1.1-.1.1-.1.1-.1.1-.1.1-.1.1-.1.1-.1.1-.1.1-.1.1-.1.1-.1.1-.1.1-.1.1-.1.1-.1.1-.1.1-.1.1-.1.1-.1.1-.1.1-.1.1-.1.1h.1.1.1.1.1.1.1.1.1.1.1.1.1.1.1.1.1.1.1.1.1.1.1.1.1.1.1.1.1.1.1.1.1.1.1.1.1.1.1.1.1.1.1.1.1.1.1.1.1v.1-.1.1-.1.1-.1.1-.1.1-.1.1-.1.1-.1.1-.1.1-.1.1-.1.1-.1.1-.1.1-.1.1-.1.1-.1.1-.1.1-.1.1-.1.1-.1.1-.1.1-.1h.1.1.1.1.1.1.1v.1h.1.1.1.1v-.1.1-.1.1-.1.1-.1.1-.1.1-.1.1-.1h.1v.1-.1.1-.1.1-.1.1-.1.1-.1.1-.1.1-.1.1-.1.1-.1h.1v.1-.1.1-.1.1-.1.1-.1.1-.1.1-.1.1-.1.1-.1.1-.1.1-.1.1-.1.1-.1.1-.1.1-.1.1-.1.1-.1.1-.1.1-.1.1h.1v-.1.1-.1.1-.1.1-.1.1-.1.1-.1.1-.1.1-.1.1-.1.1-.1.1-.1.1-.1.1-.1.1-.1.1-.1.1-.1.1h.1.1.1.1.1.1.1.1.1.1.1.1.1.1.1.1.1.1.1.1.1.1.1.1.1.1.1.1.1.1.1.1.1.1.1.1.1.1.1.1.1.1.1.1.1.1.1.1.1.1.1.1.1.1v.1-.1.1-.1.1-.1.1-.1.1-.1.1-.1.1-.1.1-.1.1-.1.1-.1.1-.1.1-.1.1-.1.1-.1.1-.1.1-.1.1-.1.1-.1.1-.1.1-.1.1-.1.1-.1.1-.1h.1v.1-.1.1-.1.1-.1.1-.1.1-.1.1-.1.1-.1.1-.1.1h.1v-.1.1-.1.1-.1.1-.1.1-.1.1-.1.1-.1.1-.1.1-.1.1-.1.1h.1.1.1.1.1.1.1.1.1.1.1.1.1.1.1.1.1.1.1.1.1.1.1.1.1.1.1.1.1.1.1.1.1.1.1.1.1.1.1.1.1.1.1.1.1.1.1.1.1.1.1.1.1.1.1.1.1.1.1.1.1.1.1.1.1v.1-.1.1-.1.1-.1.1-.1.1-.1.1-.1.1-.1.1-.1.1-.1.1-.1.1-.1.1-.1.1-.1.1-.1.1-.1.1-.1.1-.1.1-.1.1-.1.1-.1.1-.1.1-.1.1-.1.1-.1.1-.1.1-.1.1h.1v-.1.1-.1.1-.1.1-.1.1-.1.1-.1.1-.1.1-.1.1-.1.1-.1.1-.1.1-.1.1-.1.1-.1.1-.1.1-.1.1-.1.1-.1.1-.1.1-.1.1-.1.1-.1.1-.1.1-.1.1-.1.1-.1.1-.1.1-.1.1-.1.1-.1h.1v.1-.1.1-.1.1-.1.1-.1.1-.1.1-.1.1-.1.1-.1.1-.1.1-.1.1-.1.1-.1.1-.1.1-.1.1-.1.1-.1.1h.1v-.1.1-.1.1-.1.1-.1.1-.1.1-.1.1-.1.1h.1v-.1.1-.1.1-.1.1-.1.1-.1.1-.1.1-.1.1-.1.1-.1h.1.1.1.1.1.1v.1-.1.1-.1.1-.1.1-.1.1-.1.1h.1v-.1.1-.1.1-.1.1-.1.1-.1.1-.1.1-.1.1-.1h.1v.1-.1.1-.1.1-.1.1-.1.1-.1.1-.1.1h.1.1.1.1.1.1.1v-.1.1-.1.1-.1.1-.1.1-.1.1-.1.1-.1.1-.1.1h.1.1.1.1.1.1.1.1.1.1.1.1.1.1.1.1.1.1.1.1.1.1.1.1.1.1.1.1.1.1.1.1.1.1.1.1.1.1.1.1.1.1.1.1.1.1.1.1.1.1.1v.1-.1.1-.1.1-.1h.1.1.1.1.1.1.1.1.1.1.1.1.1v.1-.1.1-.1.1-.1.1-.1.1-.1.1-.1.1-.1.1-.1.1-.1.1-.1.1-.1.1-.1.1-.1.1-.1.1-.1.1-.1.1-.1.1-.1.1-.1.1-.1.1-.1.1-.1.1-.1.1-.1.1-.1.1-.1.1-.1.1h.1.1.1.1v-.1.1-.1.1-.1.1-.1.1-.1.1-.1.1-.1.1-.1.1-.1.1-.1.1-.1.1-.1.1-.1.1-.1.1-.1.1-.1.1-.1.1-.1.1-.1.1-.1.1h.1.1.1.1.1.1.1.1.1.1.1.1.1.1.1.1.1.1.1.1.1.1.1.1.1.1.1.1.1.1.1.1.1.1.1.1.1.1.1.1.1.1.1.1.1.1.1.1.1.1.1.1.1.1.1.1.1.1.1.1.1.1.1.1.1.1.1.1.1.1.1.1.1.1.1.1.1.1.1.1.1.1.1.1.1.1.1.1.1.1.1.1.1.1.1.1.1.1.1.1v.1-.1.1-.1.1-.1.1-.1.1-.1.1-.1.1-.1.1-.1.1-.1.1-.1.1-.1.1-.1.1-.1.1-.1.1-.1.1-.1.1-.1.1-.1.1-.1h.1v.1-.1.1-.1.1-.1.1-.1.1-.1.1-.1.1-.1.1-.1.1-.1.1-.1.1-.1.1-.1.1-.1.1-.1.1-.1.1-.1.1-.1.1-.1.1-.1.1h.1v-.1.1-.1h.1v.1-.1.1h.1.1.1.1.1.1.1.1.1.1.1.1.1.1.1.1.1.1.1.1.1.1.1.1.1.1.1.1.1.1.1.1.1.1.1.1.1.1.1.1.1.1.1.1.1.1.1.1.1.1.1.1.1.1.1.1.1.1.1.1.1.1.1.1.1.1.1.1.1.1.1.1.1.1.1.1.1.1.1.1.1.1.1.1.1.1.1.1.1.1.1.1.1.1.1.1.1.1.1.1.1.1.1.1.1.1.1.1.1.1.1.1.1.1.1.1.1.1.1.1.1.1.1.1.1.1.1.1.1.1.1.1.1.1.1.1.1.1.1.1.1.1.1.1.1.1.1.1.1.1.1.1.1.1.1.1.1.1.1.1.1.1.1.1.1.1.1.1.1.1.1.1.1v.1-.1.1-.1.1-.1.1-.1.1-.1.1-.1.1-.1.1-.1.1-.1.1-.1.1-.1.1-.1.1-.1.1-.1.1-.1.1-.1.1-.1.1-.1.1-.1.1-.1.1-.1.1h.1.1.1.1.1.1.1.1.1.1.1.1.1.1.1.1.1.1.1.1.1.1.1.1.1.1.1.1.1.1.1.1.1.1.1.1.1.1.1.1.1.1.1.1.1.1.1.1.1.1.1.1.1.1.1.1.1.1.1.1.1.1.1.1.1.1.1.1.1.1.1.1.1.1.1.1.1.1.1.1.1.1.1.1.1.1.1.1.1.1.1.1.1.1.1.1.1.1.1.1.1.1.1.1.1.1.1.1.1.1.1.1.1.1.1.1.1.1.1.1.1.1.1.1.1.1.1.1.1.1.1.1.1.1.1.1.1.1.1.1.1.1v.1-.1.1-.1h.1v.1-.1.1-.1.1-.1.1-.1.1-.1.1-.1.1-.1.1-.1h.1.1v.1-.1.1-.1.1-.1.1-.1h.1.1v.1-.1.1-.1.1-.1.1-.1.1-.1.1-.1.1-.1.1-.1.1-.1.1-.1.1-.1.1-.1.1-.1.1-.1.1-.1.1-.1.1-.1.1-.1.1h.1v-.1.1-.1.1-.1.1h.1.1.1.1.1.1.1.1.1.1.1.1.1.1.1.1.1.1.1.1.1.1.1.1.1.1.1.1.1.1.1.1.1.1.1.1.1.1.1.1.1.1.1.1.1.1.1.1.1.1.1.1.1.1.1.1.1.1.1.1.1.1.1.1.1.1.1.1.1.1.1.1.1.1.1.1.1.1.1.1.1.1.1.1.1.1.1.1.1.1.1.1.1.1.1.1.1.1.1.1.1.1.1.1.1.1.1.1.1.1.1.1.1.1.1.1.1.1.1.1.1.1.1.1v.1-.1.1-.1.1-.1.1-.1.1-.1.1-.1.1-.1.1-.1.1-.1.1-.1.1-.1.1-.1.1-.1.1-.1.1-.1.1-.1.1-.1.1-.1.1-.1.1-.1.1-.1.1-.1.1-.1.1-.1.1-.1.1-.1h.1v.1-.1.1-.1.1h.1v-.1.1-.1.1-.1.1-.1.1-.1.1-.1h.1.1.1.1.1.1.1.1.1.1.1.1.1.1.1.1.1.1.1v.1-.1.1h.1v-.1.1-.1.1-.1.1-.1.1-.1.1-.1.1-.1.1-.1.1-.1.1-.1.1-.1.1-.1.1-.1h.1.1.1.1.1v.1-.1.1-.1.1-.1.1-.1.1-.1.1-.1.1-.1.1h.1v-.1.1-.1.1-.1.1-.1.1-.1.1-.1.1-.1.1-.1.1-.1.1-.1.1-.1.1-.1.1-.1.1-.1.1-.1.1-.1.1-.1.1-.1.1-.1.1-.1.1-.1.1-.1.1-.1.1-.1.1-.1.1-.1.1-.1.1-.1.1-.1.1-.1.1-.1.1-.1.1-.1.1-.1.1-.1.1-.1.1-.1.1-.1.1-.1.1-.1.1-.1.1-.1.1-.1.1h.1v-.1.1-.1.1-.1.1-.1.1-.1.1-.1.1-.1.1-.1.1-.1.1h.1.1.1v-.1.1-.1.1-.1.1-.1.1-.1.1-.1.1-.1.1-.1.1-.1.1-.1.1-.1.1h.1v-.1.1-.1.1-.1.1-.1.1-.1.1-.1.1-.1.1-.1.1-.1.1-.1.1-.1h.1v.1h.1.1.1.1.1.1.1.1.1.1.1.1.1.1.1.1.1.1.1.1.1.1.1.1.1.1.1.1.1.1.1v-.1.1-.1.1-.1h.1v.1-.1.1-.1.1-.1.1-.1.1-.1.1-.1.1-.1.1-.1.1-.1.1-.1.1-.1.1-.1.1-.1.1h.1.1v-.1.1-.1.1-.1.1-.1.1-.1.1-.1.1-.1.1-.1.1-.1.1-.1h.1.1.1.1.1.1.1.1.1.1v.1-.1.1-.1.1-.1.1-.1.1-.1.1-.1.1-.1.1-.1.1-.1.1-.1.1-.1.1-.1.1-.1.1-.1.1-.1.1-.1.1-.1.1-.1.1-.1.1-.1.1-.1.1-.1.1-.1.1-.1.1-.1.1-.1.1-.1.1-.1.1-.1.1-.1.1-.1.1-.1.1-.1.1-.1.1-.1.1-.1.1-.1.1-.1.1-.1.1-.1.1-.1.1-.1.1-.1.1-.1.1-.1.1-.1.1-.1.1-.1.1-.1.1-.1.1-.1.1-.1.1-.1.1-.1.1-.1.1-.1.1-.1.1-.1.1-.1.1-.1.1-.1.1-.1.1-.1.1-.1h.1v.1-.1.1-.1.1-.1.1-.1.1-.1.1-.1.1-.1.1-.1.1-.1.1-.1.1-.1.1-.1.1-.1.1-.1.1-.1.1-.1.1-.1.1-.1.1-.1.1-.1.1-.1.1-.1.1-.1.1-.1h.1.1.1v.1-.1.1-.1.1-.1.1-.1h.1v.1-.1.1-.1.1-.1.1-.1.1-.1.1-.1.1-.1.1-.1.1-.1.1-.1.1-.1.1-.1.1-.1.1-.1.1-.1.1-.1.1-.1.1-.1.1-.1.1-.1.1-.1.1h.1v-.1.1-.1.1-.1.1-.1.1-.1.1-.1.1-.1.1-.1.1-.1.1-.1.1-.1.1-.1.1-.1.1-.1.1-.1.1-.1.1-.1.1-.1.1-.1.1-.1.1-.1.1-.1.1-.1.1-.1.1-.1.1-.1.1-.1.1-.1.1-.1.1-.1.1-.1.1-.1.1-.1.1-.1.1-.1.1-.1.1-.1.1-.1.1-.1.1-.1.1-.1.1-.1h.1v.1-.1.1-.1.1-.1.1-.1.1-.1.1-.1.1-.1.1-.1.1-.1.1-.1.1-.1.1-.1.1-.1.1-.1.1-.1.1-.1.1-.1.1-.1.1-.1.1-.1.1-.1.1-.1.1-.1.1-.1.1-.1.1-.1.1-.1.1-.1.1-.1.1-.1.1-.1.1-.1.1-.1.1-.1.1-.1.1-.1.1-.1.1-.1.1-.1.1-.1.1-.1.1-.1.1-.1.1-.1.1-.1.1-.1.1-.1.1-.1.1-.1.1-.1.1-.1.1-.1.1-.1.1-.1.1-.1.1-.1.1-.1.1-.1.1-.1.1-.1.1-.1.1-.1.1-.1.1-.1.1-.1.1-.1.1-.1.1-.1.1-.1.1-.1.1-.1.1-.1.1h.1v-.1.1-.1.1h.1.1.1.1.1.1v-.1.1-.1.1-.1.1-.1.1-.1.1-.1.1-.1.1-.1.1-.1.1-.1.1h.1v-.1.1-.1.1-.1.1-.1.1-.1.1-.1.1-.1.1-.1.1-.1.1-.1.1-.1.1-.1.1-.1.1-.1.1-.1.1-.1.1-.1.1-.1.1-.1.1-.1.1-.1.1-.1.1-.1.1-.1.1-.1.1-.1.1-.1.1-.1.1-.1.1-.1.1-.1.1-.1.1-.1.1-.1.1-.1.1-.1.1h.1v-.1.1-.1.1-.1.1-.1.1-.1.1-.1.1-.1.1-.1.1-.1.1-.1.1-.1.1-.1.1-.1.1-.1.1-.1.1-.1.1-.1.1-.1.1-.1.1-.1h.1.1.1.1.1.1v.1-.1.1-.1.1-.1.1-.1.1-.1h.1v.1-.1.1-.1.1-.1.1-.1.1-.1.1-.1.1-.1.1h.1.1.1.1.1.1.1.1.1v-.1.1-.1.1-.1.1-.1.1-.1.1-.1.1-.1.1-.1.1-.1.1-.1h.1v.1-.1.1-.1.1-.1.1-.1.1-.1.1-.1.1-.1.1-.1.1-.1.1-.1.1-.1.1-.1.1-.1.1-.1.1-.1.1-.1.1-.1.1-.1.1-.1.1-.1.1-.1.1-.1.1-.1.1-.1.1-.1.1-.1.1-.1.1-.1.1-.1.1-.1.1-.1.1-.1.1-.1.1-.1.1-.1.1-.1.1-.1.1h.1.1.1.1.1.1.1.1.1.1.1.1.1.1.1.1.1.1.1.1.1.1.1.1.1.1.1.1.1.1.1.1.1.1.1.1.1.1.1.1.1.1.1.1.1.1.1.1.1.1.1.1.1.1.1.1.1.1.1.1.1.1.1.1.1.1.1.1.1.1.1.1.1.1.1.1.1.1.1.1.1.1.1.1.1.1.1.1.1.1.1.1.1.1.1.1.1.1.1.1.1.1.1.1.1.1.1.1.1.1.1.1.1.1.1.1.1.1.1.1.1.1.1.1.1.1.1.1.1.1.1.1.1.1.1.1.1.1.1.1.1.1.1.1.1.1.1.1.1.1.1.1.1.1.1.1.1.1.1.1.1.1.1.1.1.1.1.1.1.1.1.1.1.1.1.1.1.1.1.1.1.1.1.1.1.1.1.1.1.1.1.1.1.1.1.1.1.1.1.1.1.1.1.1.1.1.1.1.1.1.1.1.1.1.1.1.1.1.1.1.1.1.1.1.1.1.1.1.1.1.1.1.1.1.1.1.1.1.1.1.1.1.1.1.1.1.1.1.1.1.1.1.1.1.1.1.1.1.1.1.1.1.1.1.1.1.1.1.1.1.1.1.1.1.1.1.1.1.1.1.1.1.1.1.1.1.1.1.1.1.1.1.1.1.1.1.1.1.1.1.1.1.1.1.1.1.1.1.1.1.1.1.1.1.1.1.1.1.1.1.1.1.1.1.1.1.1.1.1.1.1.1.1.1.1.1.1.1.1.1.1.1.1.1.1.1.1.1.1.1.1.1.1.1.1.1.1.1.1.1.1.1.1.1.1.1.1.1.1.1.1.1.1.1.1.1.1.1.1.1.1.1.1.1.1.1.1.1.1.1.1.1.1.1.1.1.1.1.1.1.1.1.1.1.1.1.1.1.1.1.1.1.1.1.1.1.1.1.1.1.1.1.1.1.1.1.1.1.1.1.1.1.1.1.1.1.1.1.1.1.1.1.1.1.1.1.1.1.1.1.1.1.1.1.1.1.1.1.1.1.1.1.1.1.1.1.1.1.1.1.1.1.1.1.1.1.1.1.1.1.1.1.1.1.1.1.1.1.1.1.1.1.1.1.1.1.1.1.1.1.1.1.1.1.1.1.1.1.1.1.1v.1-.1.1-.1h.1v.1-.1.1-.1.1-.1.1-.1.1-.1.1-.1.1-.1.1-.1.1-.1.1-.1.1-.1.1-.1.1-.1.1-.1.1-.1.1-.1.1-.1.1-.1.1-.1.1-.1.1-.1.1-.1.1-.1.1-.1.1-.1.1-.1.1-.1.1-.1.1-.1.1-.1.1-.1.1-.1.1-.1.1-.1.1-.1.1-.1.1-.1.1-.1.1-.1.1-.1.1-.1.1-.1.1-.1.1-.1.1-.1.1-.1.1-.1.1-.1.1-.1.1-.1.1-.1.1-.1.1-.1.1-.1.1-.1h.1v.1-.1.1-.1.1-.1.1h.1v-.1.1-.1.1-.1.1-.1.1-.1.1-.1.1-.1.1-.1.1-.1.1-.1.1h.1v-.1.1-.1.1-.1.1-.1.1-.1.1-.1.1-.1.1-.1.1-.1.1-.1.1-.1.1-.1.1-.1.1-.1.1-.1.1-.1.1-.1.1-.1.1-.1.1-.1.1-.1.1-.1.1-.1.1-.1.1-.1.1-.1.1-.1.1-.1.1-.1.1-.1.1-.1.1-.1.1-.1.1-.1.1-.1.1-.1.1-.1.1-.1.1-.1.1-.1.1-.1.1-.1.1-.1.1-.1.1-.1.1-.1h.1.1v.1-.1.1-.1.1-.1.1-.1.1-.1.1-.1.1-.1.1-.1.1-.1h.1v.1-.1.1-.1.1-.1.1-.1.1-.1.1-.1.1-.1.1-.1.1-.1.1h.1v-.1.1-.1.1-.1h.1.1v.1-.1.1-.1.1-.1.1-.1.1-.1.1-.1.1-.1.1-.1.1-.1.1-.1.1-.1.1-.1.1-.1h.1v.1-.1h.1v.1-.1.1-.1h.1.1.1.1v.1-.1.1-.1.1-.1.1-.1.1-.1.1-.1.1-.1.1-.1h.1v.1-.1h.1v.1-.1.1-.1.1-.1.1h.1.1.1.1.1.1.1.1.1.1.1.1.1.1.1.1.1.1.1.1.1.1.1.1.1.1.1.1.1.1.1.1.1.1.1.1.1.1.1v-.1.1-.1.1-.1.1-.1.1-.1.1-.1.1-.1.1-.1.1-.1.1-.1.1-.1.1-.1.1-.1.1-.1.1-.1h.1v.1-.1.1-.1.1-.1.1-.1.1-.1.1-.1.1-.1.1-.1.1-.1.1-.1.1-.1.1-.1.1-.1.1-.1.1h.1.1v-.1.1-.1.1-.1.1-.1.1-.1.1-.1h.1.1.1v.1-.1.1-.1.1-.1.1-.1.1-.1.1-.1.1-.1.1-.1.1-.1.1-.1.1-.1.1-.1.1-.1.1-.1.1-.1.1-.1.1-.1.1-.1.1-.1.1-.1.1-.1.1-.1.1-.1.1-.1.1-.1.1-.1.1-.1.1h.1v-.1.1-.1.1-.1.1-.1.1-.1.1h.1.1.1.1.1.1.1v-.1.1-.1.1-.1.1-.1.1-.1.1-.1.1-.1.1-.1.1-.1.1-.1.1-.1.1-.1.1-.1.1-.1.1-.1.1h.1.1.1v-.1.1-.1.1-.1.1-.1.1-.1.1-.1.1-.1.1-.1.1-.1.1-.1.1-.1.1h.1v-.1.1-.1.1-.1.1-.1.1-.1.1-.1.1-.1.1-.1.1-.1.1-.1.1-.1.1-.1h.1.1.1.1.1.1.1.1.1.1.1.1.1.1v.1-.1.1-.1.1-.1.1-.1.1-.1.1-.1.1h.1v-.1.1-.1.1-.1.1-.1.1-.1.1-.1.1-.1.1-.1.1-.1.1-.1.1-.1.1-.1.1-.1.1-.1.1h.1v-.1.1-.1.1-.1.1-.1.1-.1h.1.1.1.1.1.1.1.1.1.1.1.1.1.1.1.1.1.1.1.1.1.1.1.1v.1-.1.1-.1.1-.1.1-.1.1-.1.1-.1.1-.1.1-.1h.1v.1-.1.1-.1.1-.1h.1v.1-.1.1-.1.1-.1.1-.1.1-.1.1-.1.1-.1.1-.1.1-.1.1-.1.1-.1.1-.1.1-.1.1-.1.1-.1.1-.1.1-.1.1-.1.1-.1.1-.1.1-.1.1-.1.1-.1.1-.1.1-.1.1-.1.1-.1.1-.1.1-.1.1-.1.1-.1.1-.1.1-.1.1-.1.1-.1.1-.1.1-.1.1-.1.1h.1.1.1.1.1.1.1.1.1.1.1.1.1.1.1.1.1.1.1.1.1.1v-.1.1-.1.1-.1.1-.1.1-.1.1-.1.1-.1.1-.1.1-.1.1-.1.1-.1.1-.1.1-.1.1h.1.1.1.1.1.1.1.1.1.1.1.1.1.1.1.1.1.1.1.1.1.1.1.1.1.1.1.1.1.1.1.1.1.1.1.1.1.1.1.1.1.1.1.1.1.1.1.1.1.1.1.1.1.1.1.1.1.1.1.1.1.1.1.1.1.1.1.1.1.1.1.1.1.1.1.1.1.1.1.1.1.1.1.1.1.1.1.1.1.1.1.1.1.1.1.1.1.1.1.1.1.1.1.1.1.1.1.1.1.1.1.1.1.1.1.1.1.1.1.1.1.1.1.1.1.1.1.1.1.1.1.1.1.1.1.1.1.1.1.1.1.1.1.1.1.1.1.1.1.1.1.1.1.1.1.1.1.1.1.1.1.1.1.1.1.1.1.1.1.1.1.1.1.1.1.1.1.1.1.1.1.1.1.1.1.1.1.1.1.1.1.1.1.1.1.1.1.1.1.1.1.1.1.1.1.1.1.1.1.1.1.1.1.1.1.1.1.1.1.1.1.1.1.1.1.1.1.1.1.1.1.1.1.1.1.1.1.1.1v.1-.1.1-.1.1-.1.1-.1.1-.1.1-.1.1-.1.1-.1.1-.1.1-.1.1-.1.1-.1.1-.1.1-.1.1-.1.1-.1.1-.1.1-.1.1-.1.1-.1.1-.1.1-.1.1-.1h.1v.1-.1.1-.1.1-.1.1-.1.1-.1.1-.1.1-.1h.1.1.1.1.1.1.1.1.1.1.1.1.1.1.1.1.1.1.1.1.1.1.1.1.1.1.1.1.1.1v.1-.1.1-.1.1-.1.1-.1.1-.1.1-.1h.1v.1-.1.1-.1.1-.1.1-.1.1-.1.1-.1.1-.1.1-.1.1-.1.1-.1.1-.1.1-.1.1-.1h.1v.1-.1.1-.1.1-.1.1-.1.1-.1.1-.1.1h.1.1.1.1.1.1.1.1.1.1.1.1.1.1.1.1v-.1.1-.1.1-.1.1-.1.1-.1.1-.1h.1v.1-.1.1-.1.1-.1.1-.1.1-.1.1-.1.1-.1.1-.1.1-.1h.1v.1-.1.1-.1.1-.1.1-.1.1-.1.1-.1.1-.1.1-.1.1-.1.1-.1.1-.1.1-.1.1-.1h.1.1v.1-.1.1-.1.1-.1.1-.1.1-.1.1-.1.1-.1.1-.1.1-.1h.1v.1-.1.1-.1.1-.1.1-.1.1-.1.1-.1.1-.1.1-.1h.1.1.1v.1-.1.1-.1.1-.1.1-.1.1-.1.1-.1.1-.1.1-.1.1-.1.1-.1.1-.1.1-.1.1-.1.1-.1h.1v.1-.1.1-.1.1-.1.1-.1.1-.1.1-.1.1-.1.1-.1.1-.1.1-.1.1-.1.1-.1.1-.1.1-.1.1-.1.1-.1.1-.1.1-.1.1-.1.1h.1.1.1.1v-.1.1-.1.1-.1h.1v.1h.1.1.1.1.1.1.1.1.1.1.1.1.1.1.1.1.1.1.1.1.1.1.1.1.1.1.1.1.1.1.1.1.1.1.1.1.1.1.1.1.1.1.1.1.1.1.1.1.1.1.1.1.1.1.1.1.1.1.1.1.1.1.1.1.1.1.1.1.1.1.1.1.1.1.1.1.1.1.1.1.1.1.1.1.1.1.1.1.1.1.1.1.1.1.1.1.1.1.1.1.1.1.1.1.1.1.1.1.1.1.1.1.1.1.1.1.1.1.1.1.1.1.1.1.1.1.1.1.1.1.1.1.1.1.1.1.1.1.1.1.1.1.1.1.1.1.1.1.1.1.1.1.1.1.1.1.1.1.1.1.1.1.1.1.1.1.1.1.1.1.1.1.1.1.1.1.1.1.1.1.1.1.1.1.1.1.1.1.1.1.1.1.1.1.1.1.1.1.1.1.1.1.1.1.1.1.1.1.1.1.1.1.1.1.1.1.1.1.1.1.1.1.1.1.1.1.1.1.1.1.1.1.1.1.1.1.1.1.1.1.1.1.1.1.1.1.1.1.1.1.1.1.1.1.1.1.1.1.1.1.1.1.1.1.1.1.1.1.1.1.1.1.1.1.1.1.1.1.1.1.1.1.1.1.1.1.1.1.1.1.1.1.1.1.1.1.1.1.1.1.1.1.1.1.1.1.1.1.1.1.1.1.1.1.1.1.1.1.1.1.1.1.1.1.1.1.1.1.1.1.1.1.1.1.1.1.1.1.1.1.1.1.1.1.1.1.1.1.1.1.1.1.1.1.1.1.1.1.1.1.1.1.1.1.1.1.1.1.1.1.1.1.1.1.1.1.1.1.1.1.1.1.1.1.1.1.1.1.1.1.1.1.1.1.1.1.1.1.1.1.1.1.1.1.1.1.1.1.1.1.1.1.1.1.1.1.1.1.1.1.1.1.1.1.1.1.1.1.1.1.1.1.1.1.1.1.1.1.1.1.1.1.1.1.1.1.1.1.1.1.1.1.1.1.1.1.1.1.1.1.1.1.1.1.1.1.1.1.1.1.1.1.1.1.1.1.1.1.1.1.1.1.1.1.1.1.1.1.1.1.1.1.1.1.1.1.1.1.1.1.1.1.1.1.1.1.1.1.1.1.1.1.1.1.1.1.1.1.1.1.1.1.1.1.1.1.1.1.1.1.1.1.1.1.1.1.1.1.1.1.1.1.1.1.1.1.1.1.1.1.1.1.1.1.1.1.1.1.1.1.1.1.1.1.1.1.1.1.1.1.1.1.1.1.1.1.1.1.1.1.1.1.1.1.1.1.1.1.1.1.1.1.1.1.1.1.1.1.1.1.1v.1-.1.1-.1.1-.1.1-.1.1-.1.1-.1.1-.1.1-.1.1-.1.1-.1.1-.1.1-.1.1-.1.1-.1.1-.1.1-.1.1-.1.1-.1.1-.1.1-.1.1-.1.1-.1.1-.1.1-.1.1-.1.1-.1.1-.1.1-.1.1-.1.1-.1.1-.1.1-.1.1-.1.1-.1.1-.1.1-.1h.1v.1-.1.1-.1.1-.1.1-.1.1-.1.1-.1.1-.1.1-.1.1-.1.1-.1.1-.1.1-.1h.1.1.1.1.1.1.1.1.1.1.1.1.1.1.1.1.1.1v.1-.1.1-.1.1-.1.1-.1.1-.1.1-.1.1-.1.1-.1.1-.1h.1.1.1.1.1.1.1.1.1.1.1.1.1.1.1.1.1.1.1.1.1.1.1.1.1.1.1.1.1.1.1.1.1.1.1.1.1.1.1.1.1.1.1.1.1.1.1.1.1.1.1.1.1.1.1.1.1.1.1.1.1.1.1.1.1.1.1.1.1.1.1.1.1.1.1.1.1.1.1.1.1.1.1.1.1.1.1.1.1.1.1.1.1.1.1.1.1.1.1.1.1.1.1.1.1.1.1.1.1.1.1.1.1.1.1.1.1.1.1.1.1.1.1.1.1.1.1.1.1.1.1.1.1.1.1.1.1.1.1.1.1.1.1.1.1.1.1.1.1.1.1.1.1.1.1.1.1.1.1.1.1.1.1.1.1.1.1.1.1.1.1.1.1.1.1.1.1.1.1.1.1.1.1.1.1.1.1.1.1.1.1.1.1.1.1.1.1.1.1.1.1.1.1.1.1.1.1.1.1v.1-.1.1-.1.1-.1.1-.1.1-.1.1-.1h.1v.1-.1.1-.1.1-.1.1-.1.1-.1.1-.1.1-.1.1-.1.1-.1.1-.1.1-.1.1-.1.1-.1.1-.1.1-.1.1-.1.1-.1.1-.1.1-.1.1-.1.1-.1.1-.1.1-.1.1-.1.1-.1.1-.1.1-.1.1-.1.1-.1.1-.1.1-.1.1-.1.1-.1.1-.1.1-.1.1-.1.1h.1v-.1.1-.1.1-.1.1-.1.1-.1.1-.1.1-.1.1-.1.1-.1.1-.1.1-.1.1-.1.1-.1.1h.1v-.1.1-.1.1-.1.1-.1.1-.1.1-.1.1-.1.1-.1.1-.1.1-.1.1-.1.1-.1.1-.1.1-.1.1-.1.1-.1.1-.1.1-.1.1-.1.1-.1.1-.1h.1v.1-.1.1-.1.1-.1.1-.1.1-.1.1-.1.1-.1.1-.1.1-.1.1-.1.1-.1.1-.1.1-.1.1-.1.1-.1.1-.1.1-.1.1-.1.1-.1.1-.1.1-.1.1h.1v-.1.1-.1.1-.1.1-.1.1-.1.1-.1h.1.1v.1h.1.1v-.1.1-.1.1-.1.1-.1.1-.1.1-.1h.1v.1-.1.1h.1.1.1.1.1.1.1.1.1.1.1.1v-.1.1-.1.1-.1.1-.1.1-.1.1-.1.1-.1.1-.1.1-.1.1-.1.1-.1.1-.1.1-.1.1-.1.1-.1.1-.1.1-.1.1-.1.1-.1.1-.1.1-.1.1-.1.1-.1.1-.1.1-.1.1-.1.1-.1.1-.1.1-.1.1-.1.1-.1.1h.1.1v-.1.1-.1.1-.1.1-.1.1-.1.1-.1.1h.1v-.1.1-.1.1-.1.1-.1.1-.1.1-.1.1-.1.1-.1.1-.1.1-.1.1-.1.1-.1.1-.1.1-.1.1-.1.1-.1.1-.1.1-.1.1-.1.1-.1.1-.1.1-.1.1-.1.1-.1.1-.1.1-.1.1-.1.1-.1.1-.1.1-.1.1-.1.1-.1.1-.1.1-.1.1-.1.1-.1.1-.1.1-.1.1-.1.1-.1.1-.1.1-.1.1-.1.1-.1.1-.1.1-.1.1-.1.1-.1.1-.1.1-.1.1-.1.1-.1h.1v.1-.1.1-.1.1-.1.1-.1.1-.1.1-.1.1-.1.1-.1.1-.1.1-.1.1-.1.1-.1.1-.1.1-.1.1-.1.1-.1.1-.1.1-.1.1-.1.1-.1.1-.1.1-.1.1-.1.1-.1h.1.1v.1-.1.1-.1.1-.1.1-.1.1-.1.1-.1.1-.1.1-.1.1-.1.1-.1.1-.1.1-.1.1-.1.1-.1.1-.1.1-.1.1-.1.1-.1.1-.1.1-.1.1-.1.1-.1.1-.1.1-.1.1-.1.1h.1.1.1v-.1.1-.1.1-.1.1-.1.1h.1.1.1.1.1.1.1.1.1.1.1.1.1v-.1.1-.1.1-.1.1-.1.1-.1.1-.1.1-.1.1-.1.1-.1.1-.1.1-.1.1-.1.1-.1.1-.1.1h.1v-.1.1-.1.1-.1.1-.1.1-.1.1-.1.1-.1.1-.1.1-.1.1-.1.1-.1.1-.1.1-.1.1-.1.1-.1.1-.1.1-.1.1-.1.1-.1.1-.1.1-.1.1-.1.1-.1.1-.1.1-.1h.1.1.1.1.1.1.1.1.1.1.1.1v.1-.1.1-.1.1-.1.1-.1.1-.1.1-.1.1-.1.1-.1.1-.1.1-.1.1-.1.1-.1.1-.1.1-.1.1-.1.1-.1.1-.1.1-.1.1-.1.1-.1.1-.1.1-.1.1-.1.1-.1.1-.1.1-.1.1-.1.1-.1.1-.1.1-.1.1-.1.1-.1.1-.1.1-.1.1-.1.1-.1.1-.1.1-.1.1-.1.1-.1.1h.1v-.1.1-.1.1-.1.1-.1.1-.1.1-.1.1-.1.1-.1.1h.1v-.1.1-.1.1-.1.1-.1.1-.1.1-.1.1-.1.1-.1.1-.1.1-.1.1-.1.1-.1.1-.1.1-.1.1h.1v-.1.1-.1.1-.1.1-.1.1-.1.1-.1.1-.1.1-.1.1-.1.1-.1.1-.1.1-.1.1-.1.1-.1.1-.1.1-.1.1-.1.1-.1.1-.1.1-.1.1-.1.1-.1.1-.1.1-.1.1-.1.1-.1.1-.1.1-.1.1-.1.1-.1.1-.1.1-.1.1-.1.1-.1.1-.1.1-.1.1-.1.1-.1.1-.1.1-.1.1-.1.1-.1.1-.1.1h.1v-.1.1-.1.1-.1.1-.1.1-.1.1-.1.1-.1.1-.1.1-.1.1-.1.1-.1.1-.1.1-.1.1-.1.1h.1v-.1.1-.1.1-.1.1-.1.1-.1.1-.1.1-.1.1-.1.1-.1.1-.1.1-.1.1-.1.1-.1.1-.1.1-.1.1-.1.1-.1.1-.1.1-.1.1-.1.1-.1.1-.1.1-.1.1-.1.1-.1.1-.1.1-.1.1-.1.1-.1.1-.1.1-.1.1-.1.1-.1.1-.1.1-.1.1-.1.1-.1.1-.1.1-.1.1-.1.1-.1.1-.1.1-.1.1-.1.1-.1.1-.1.1-.1.1-.1.1-.1.1-.1h.1v.1-.1.1-.1.1-.1.1h.1v-.1.1-.1.1-.1.1-.1.1-.1.1-.1.1-.1.1-.1.1-.1.1-.1.1-.1.1-.1.1-.1.1-.1.1-.1.1-.1.1-.1.1-.1.1-.1.1-.1.1-.1.1-.1.1-.1.1-.1.1h.1v-.1.1-.1.1-.1.1-.1.1-.1.1-.1.1-.1.1-.1.1-.1.1-.1.1-.1h.1v.1-.1.1-.1.1-.1.1-.1.1-.1.1-.1.1-.1.1-.1.1-.1.1-.1.1-.1.1-.1.1-.1.1-.1.1-.1.1-.1.1-.1.1-.1.1-.1.1-.1.1-.1.1-.1.1-.1.1-.1.1-.1.1-.1.1-.1.1-.1.1-.1.1-.1.1-.1.1-.1.1-.1.1-.1.1-.1.1-.1.1-.1.1-.1.1-.1.1-.1.1-.1.1h.1.1v-.1.1-.1.1-.1.1-.1.1-.1.1-.1.1-.1.1-.1.1-.1.1-.1.1-.1.1-.1h.1v.1-.1.1-.1.1-.1.1-.1.1-.1.1-.1.1-.1.1-.1.1-.1.1-.1.1-.1.1-.1.1h.1.01"/></g></g></svg>